<?xml version="1.0" standalone="no"?>
<!DOCTYPE svg PUBLIC "-//W3C//DTD SVG 1.1//EN" "http://www.w3.org/Graphics/SVG/1.1/DTD/svg11.dtd">
<svg xmlns="http://www.w3.org/2000/svg" width="498" height="199" viewBox="0 0 498 199" fill="none">
<path d="M195.198 173.017C195.198 173.571 195.052 174.1 194.759 174.6C194.479 175.087 194.053 175.488 193.469 175.793C192.885 176.103 192.118 176.255 191.18 176.255C190.724 176.255 190.316 176.231 189.963 176.182C189.604 176.146 189.269 176.085 188.964 175.987C188.672 175.89 188.362 175.762 188.039 175.598V173.139C188.587 173.419 189.141 173.638 189.695 173.796C190.261 173.942 190.778 174.015 191.253 174.015C191.527 174.015 191.746 173.985 191.911 173.918C192.087 173.857 192.215 173.766 192.3 173.65C192.379 173.522 192.422 173.382 192.422 173.236C192.422 173.059 192.355 172.913 192.227 172.798C192.111 172.67 191.917 172.542 191.643 172.408C191.381 172.28 191.034 172.11 190.596 171.897C190.206 171.72 189.853 171.544 189.549 171.361C189.257 171.166 188.995 170.959 188.77 170.728C188.556 170.484 188.392 170.204 188.283 169.876C188.167 169.553 188.112 169.17 188.112 168.731C188.112 168.086 188.27 167.538 188.599 167.1C188.922 166.649 189.366 166.309 189.938 166.077C190.523 165.852 191.192 165.736 191.959 165.736C192.623 165.736 193.225 165.822 193.761 165.98C194.297 166.126 194.772 166.29 195.198 166.467L194.346 168.61C193.907 168.415 193.475 168.263 193.055 168.147C192.629 168.019 192.233 167.952 191.862 167.952C191.631 167.952 191.436 167.989 191.278 168.05C191.131 168.098 191.016 168.171 190.937 168.269C190.87 168.366 190.839 168.482 190.839 168.61C190.839 168.774 190.894 168.92 191.01 169.048C191.138 169.164 191.351 169.291 191.643 169.437C191.935 169.584 192.331 169.778 192.836 170.022C193.335 170.235 193.761 170.472 194.102 170.728C194.455 170.99 194.723 171.306 194.906 171.678C195.1 172.037 195.198 172.481 195.198 173.017Z" fill="#FFCC00"/>
<path d="M209.239 170.991C209.239 171.77 209.142 172.488 208.947 173.134C208.764 173.785 208.472 174.345 208.07 174.814C207.663 175.27 207.145 175.629 206.512 175.885C205.891 176.129 205.149 176.25 204.272 176.25C203.408 176.25 202.665 176.129 202.032 175.885C201.411 175.629 200.9 175.27 200.498 174.814C200.09 174.345 199.792 173.785 199.597 173.134C199.402 172.488 199.305 171.764 199.305 170.967C199.305 169.913 199.475 168.994 199.816 168.215C200.169 167.424 200.717 166.815 201.447 166.389C202.19 165.951 203.14 165.731 204.296 165.731C205.447 165.731 206.39 165.951 207.121 166.389C207.851 166.815 208.387 167.424 208.728 168.215C209.069 168.994 209.239 169.92 209.239 170.991ZM202.202 170.991C202.202 171.594 202.275 172.123 202.421 172.574C202.567 173.012 202.787 173.353 203.079 173.596C203.383 173.828 203.785 173.937 204.272 173.937C204.771 173.937 205.173 173.828 205.465 173.596C205.769 173.353 205.989 173.012 206.122 172.574C206.269 172.123 206.342 171.594 206.342 170.991C206.342 170.066 206.183 169.335 205.879 168.799C205.569 168.264 205.039 167.996 204.296 167.996C203.791 167.996 203.383 168.118 203.079 168.361C202.768 168.605 202.543 168.958 202.397 169.408C202.263 169.846 202.202 170.376 202.202 170.991Z" fill="#FFCC00"/>
<path d="M216.704 176.108H213.977V165.881H220.015V168.097H216.704V170.045H219.772V172.26H216.704V176.108Z" fill="#FFCC00"/>
<path d="M229.127 176.106H226.351V168.143H223.867V165.879H231.61V168.143H229.127V176.106Z" fill="#FFCC00"/>
<path d="M249.521 165.879L247.013 176.106H243.75L242.752 171.65C242.734 171.571 242.703 171.431 242.655 171.236C242.618 171.029 242.582 170.797 242.533 170.554C242.484 170.298 242.436 170.043 242.387 169.799C242.35 169.543 242.326 169.324 242.314 169.142C242.296 169.324 242.265 169.543 242.216 169.799C242.18 170.043 242.143 170.298 242.095 170.554C242.046 170.797 241.997 171.029 241.949 171.236C241.912 171.431 241.882 171.571 241.851 171.65L240.877 176.106H237.614L235.082 165.879H237.736L238.856 171.017C238.887 171.132 238.929 171.309 238.978 171.552C239.027 171.784 239.075 172.033 239.124 172.307C239.173 172.569 239.221 172.831 239.27 173.086C239.319 173.33 239.349 173.543 239.368 173.719C239.398 173.427 239.447 173.105 239.514 172.745C239.574 172.374 239.648 172.003 239.733 171.625C239.812 171.236 239.885 170.883 239.952 170.554C240.013 170.231 240.074 169.964 240.122 169.75L241.048 165.879H243.604L244.457 169.75C244.505 169.945 244.56 170.213 244.627 170.554C244.706 170.883 244.785 171.236 244.87 171.625C244.95 172.003 245.023 172.374 245.09 172.745C245.15 173.123 245.199 173.445 245.236 173.719C245.266 173.476 245.315 173.184 245.382 172.843C245.443 172.49 245.51 172.137 245.577 171.796C245.637 171.455 245.686 171.199 245.723 171.017L246.867 165.879H249.521Z" fill="#FFCC00"/>
<path d="M260.015 176.108L259.503 174.184H256.192L255.68 176.108H252.637L255.973 165.856H259.649L263.034 176.108H260.015ZM258.943 171.919L258.505 170.239C258.456 170.063 258.383 169.813 258.286 169.485C258.201 169.144 258.115 168.797 258.018 168.437C257.933 168.066 257.872 167.768 257.823 167.537C257.787 167.768 257.732 168.048 257.653 168.389C257.567 168.73 257.488 169.071 257.409 169.411C257.324 169.752 257.251 170.032 257.19 170.239L256.752 171.919H258.943Z" fill="#FFCC00"/>
<path d="M270.391 165.882C271.317 165.882 272.084 165.998 272.705 166.223C273.319 166.455 273.782 166.795 274.093 167.246C274.397 167.684 274.555 168.238 274.555 168.902C274.555 169.328 274.482 169.705 274.336 170.046C274.202 170.387 274.007 170.697 273.752 170.971C273.49 171.233 273.179 171.458 272.826 171.653L275.797 176.109H272.656L270.489 172.384H269.807V176.109H267.031V165.882H270.391ZM270.343 167.976H269.807V170.314H270.318C270.738 170.314 271.079 170.229 271.341 170.046C271.615 169.851 271.755 169.51 271.755 169.023C271.755 168.701 271.639 168.451 271.414 168.269C271.201 168.074 270.842 167.976 270.343 167.976Z" fill="#FFCC00"/>
<path d="M285.703 176.108H279.615V165.881H285.703V168.097H282.391V169.704H285.459V171.92H282.391V173.867H285.703V176.108Z" fill="#FFCC00"/>
<path d="M305.762 176.106H302.986V171.942H299.772V176.106H296.996V165.879H299.772V169.677H302.986V165.879H305.762V176.106Z" fill="#FFCC00"/>
<path d="M320.435 170.994C320.435 171.773 320.337 172.491 320.142 173.137C319.96 173.788 319.668 174.348 319.266 174.817C318.858 175.273 318.34 175.632 317.707 175.888C317.086 176.132 316.344 176.253 315.467 176.253C314.603 176.253 313.86 176.132 313.227 175.888C312.606 175.632 312.095 175.273 311.693 174.817C311.285 174.348 310.987 173.788 310.792 173.137C310.597 172.491 310.5 171.767 310.5 170.969C310.5 169.916 310.67 168.997 311.011 168.218C311.364 167.427 311.912 166.818 312.643 166.392C313.385 165.954 314.335 165.734 315.492 165.734C316.642 165.734 317.586 165.954 318.316 166.392C319.047 166.818 319.582 167.427 319.923 168.218C320.264 168.997 320.435 169.922 320.435 170.994ZM313.398 170.994C313.398 171.596 313.471 172.126 313.617 172.577C313.763 173.015 313.982 173.356 314.274 173.599C314.579 173.831 314.98 173.94 315.467 173.94C315.966 173.94 316.368 173.831 316.66 173.599C316.965 173.356 317.184 173.015 317.318 172.577C317.464 172.126 317.537 171.596 317.537 170.994C317.537 170.069 317.379 169.338 317.074 168.802C316.764 168.267 316.234 167.999 315.492 167.999C314.986 167.999 314.579 168.121 314.274 168.364C313.964 168.608 313.738 168.961 313.592 169.411C313.458 169.849 313.398 170.379 313.398 170.994Z" fill="#FFCC00"/>
<path d="M333.862 165.881V172.041C333.862 172.906 333.698 173.648 333.376 174.281C333.047 174.914 332.56 175.401 331.915 175.742C331.263 176.083 330.441 176.254 329.455 176.254C328.043 176.254 326.959 175.901 326.217 175.182C325.486 174.452 325.121 173.423 325.121 172.09V165.881H327.897V171.895C327.897 172.613 328.025 173.131 328.287 173.454C328.56 173.782 328.968 173.941 329.504 173.941C329.875 173.941 330.174 173.88 330.405 173.746C330.648 173.6 330.825 173.374 330.941 173.064C331.05 172.76 331.111 172.358 331.111 171.871V165.881H333.862Z" fill="#FFCC00"/>
<path d="M345.608 173.015C345.608 173.569 345.462 174.098 345.17 174.598C344.89 175.085 344.463 175.486 343.879 175.791C343.295 176.101 342.528 176.253 341.59 176.253C341.134 176.253 340.726 176.229 340.373 176.18C340.014 176.144 339.679 176.083 339.374 175.985C339.082 175.888 338.772 175.76 338.449 175.596V173.137C338.997 173.417 339.551 173.636 340.105 173.794C340.671 173.94 341.189 174.013 341.663 174.013C341.937 174.013 342.156 173.983 342.321 173.916C342.497 173.855 342.625 173.764 342.71 173.648C342.789 173.52 342.832 173.38 342.832 173.234C342.832 173.057 342.765 172.911 342.637 172.796C342.522 172.668 342.327 172.54 342.053 172.406C341.791 172.278 341.444 172.108 341.006 171.895C340.616 171.718 340.263 171.542 339.959 171.359C339.667 171.164 339.405 170.957 339.18 170.726C338.967 170.483 338.802 170.202 338.693 169.874C338.577 169.551 338.522 169.168 338.522 168.729C338.522 168.084 338.681 167.536 339.009 167.098C339.332 166.647 339.776 166.307 340.348 166.075C340.933 165.85 341.602 165.734 342.369 165.734C343.033 165.734 343.636 165.82 344.171 165.978C344.707 166.124 345.182 166.288 345.608 166.465L344.756 168.608C344.317 168.413 343.885 168.261 343.465 168.145C343.039 168.017 342.643 167.95 342.272 167.95C342.041 167.95 341.846 167.987 341.688 168.048C341.542 168.096 341.426 168.169 341.347 168.267C341.28 168.364 341.249 168.48 341.249 168.608C341.249 168.772 341.304 168.918 341.42 169.046C341.548 169.162 341.761 169.289 342.053 169.435C342.345 169.582 342.741 169.776 343.246 170.02C343.745 170.233 344.171 170.47 344.512 170.726C344.865 170.988 345.133 171.304 345.316 171.676C345.511 172.035 345.608 172.479 345.608 173.015Z" fill="#FFCC00"/>
<path d="M356.162 176.109H350.074V165.882H356.162V168.098H352.85V169.705H355.918V171.92H352.85V173.868H356.162V176.109Z" fill="#FFCC00"/>
<path d="M370.732 165.734C371.231 165.734 371.663 165.826 372.022 166.002C372.394 166.167 372.68 166.41 372.874 166.733C373.069 167.061 373.167 167.457 373.167 167.926C373.167 168.528 372.972 169.04 372.582 169.46C372.193 169.886 371.693 170.263 371.097 170.604L373.921 173.356C374.177 173.064 374.39 172.723 374.555 172.333C374.713 171.931 374.853 171.499 374.968 171.043H376.137C375.991 171.663 375.796 172.23 375.553 172.747C375.322 173.252 375.029 173.709 374.676 174.111L376.722 176.107H375.163L373.897 174.865C373.587 175.145 373.264 175.389 372.923 175.596C372.582 175.809 372.199 175.973 371.779 176.083C371.371 176.192 370.902 176.253 370.366 176.253C369.697 176.253 369.125 176.144 368.638 175.937C368.163 175.712 367.798 175.395 367.542 174.987C367.28 174.567 367.152 174.056 367.152 173.453C367.152 172.966 367.238 172.546 367.42 172.187C367.597 171.834 367.858 171.517 368.199 171.237C368.54 170.963 368.936 170.696 369.392 170.434C369.179 170.19 368.979 169.947 368.784 169.703C368.589 169.46 368.425 169.192 368.297 168.9C368.181 168.608 368.126 168.291 368.126 167.95C368.126 167.481 368.23 167.086 368.443 166.757C368.65 166.416 368.954 166.167 369.344 166.002C369.733 165.826 370.196 165.734 370.732 165.734ZM370.099 171.164C369.739 171.377 369.429 171.59 369.173 171.797C368.912 171.992 368.711 172.223 368.565 172.479C368.431 172.741 368.37 173.051 368.37 173.404C368.37 173.958 368.546 174.403 368.905 174.744C369.277 175.072 369.77 175.231 370.391 175.231C371.024 175.231 371.56 175.127 371.998 174.914C372.448 174.707 372.832 174.445 373.142 174.135L370.099 171.164ZM370.683 166.684C370.257 166.684 369.916 166.8 369.66 167.025C369.399 167.238 369.271 167.548 369.271 167.95C369.271 168.291 369.356 168.62 369.539 168.924C369.733 169.216 370.007 169.551 370.366 169.922C370.951 169.6 371.371 169.289 371.633 168.997C371.888 168.693 372.022 168.334 372.022 167.926C372.022 167.554 371.9 167.256 371.657 167.025C371.413 166.8 371.085 166.684 370.683 166.684Z" fill="#FFCC00"/>
<path d="M408.667 165.882V172.042C408.667 172.907 408.503 173.649 408.18 174.282C407.851 174.915 407.364 175.402 406.719 175.743C406.068 176.084 405.246 176.255 404.26 176.255C402.848 176.255 401.764 175.902 401.021 175.183C400.291 174.453 399.926 173.424 399.926 172.091V165.882H402.702V171.896C402.702 172.614 402.829 173.132 403.091 173.455C403.365 173.783 403.773 173.941 404.309 173.941C404.68 173.941 404.978 173.881 405.21 173.747C405.453 173.601 405.63 173.375 405.745 173.065C405.855 172.761 405.916 172.359 405.916 171.872V165.882H408.667Z" fill="#FFCC00"/>
<path d="M420.413 173.015C420.413 173.569 420.267 174.098 419.974 174.598C419.694 175.085 419.268 175.486 418.684 175.791C418.099 176.101 417.332 176.253 416.395 176.253C415.938 176.253 415.531 176.229 415.178 176.18C414.818 176.144 414.484 176.083 414.179 175.985C413.887 175.888 413.577 175.76 413.254 175.596V173.137C413.802 173.417 414.356 173.636 414.91 173.794C415.476 173.94 415.993 174.013 416.468 174.013C416.742 174.013 416.961 173.983 417.125 173.916C417.302 173.855 417.43 173.764 417.515 173.648C417.594 173.52 417.637 173.38 417.637 173.234C417.637 173.057 417.57 172.911 417.442 172.796C417.326 172.668 417.132 172.54 416.858 172.406C416.596 172.278 416.249 172.108 415.811 171.895C415.421 171.718 415.068 171.542 414.764 171.359C414.471 171.164 414.21 170.957 413.984 170.726C413.771 170.483 413.607 170.202 413.497 169.874C413.382 169.551 413.327 169.168 413.327 168.729C413.327 168.084 413.485 167.536 413.814 167.098C414.137 166.647 414.581 166.307 415.153 166.075C415.738 165.85 416.407 165.734 417.174 165.734C417.838 165.734 418.44 165.82 418.976 165.978C419.512 166.124 419.986 166.288 420.413 166.465L419.56 168.608C419.122 168.413 418.69 168.261 418.27 168.145C417.844 168.017 417.448 167.95 417.077 167.95C416.845 167.95 416.651 167.987 416.492 168.048C416.346 168.096 416.231 168.169 416.151 168.267C416.085 168.364 416.054 168.48 416.054 168.608C416.054 168.772 416.109 168.918 416.225 169.046C416.352 169.162 416.565 169.289 416.858 169.435C417.15 169.582 417.545 169.776 418.051 170.02C418.55 170.233 418.976 170.47 419.317 170.726C419.67 170.988 419.938 171.304 420.12 171.676C420.315 172.035 420.413 172.479 420.413 173.015Z" fill="#FFCC00"/>
<path d="M424.867 176.108V165.881H427.643V176.108H424.867Z" fill="#FFCC00"/>
<path d="M442.505 176.109H438.877L435.152 168.901H435.079C435.109 169.132 435.134 169.4 435.152 169.705C435.164 170.015 435.182 170.332 435.201 170.654C435.213 170.965 435.225 171.251 435.225 171.507V176.109H432.766V165.882H436.394L440.095 172.992H440.143C440.125 172.767 440.107 172.505 440.095 172.213C440.077 171.92 440.058 171.622 440.046 171.312C440.046 171.007 440.046 170.74 440.046 170.508V165.882H442.505V176.109Z" fill="#FFCC00"/>
<path d="M453.685 176.107H447.598V165.88H453.685V168.096H450.373V169.703H453.441V171.919H450.373V173.866H453.685V176.107Z" fill="#FFCC00"/>
<path d="M465.055 173.015C465.055 173.569 464.909 174.099 464.617 174.598C464.337 175.085 463.911 175.487 463.326 175.791C462.742 176.102 461.975 176.254 461.038 176.254C460.581 176.254 460.173 176.229 459.82 176.181C459.461 176.144 459.126 176.083 458.822 175.986C458.53 175.889 458.219 175.761 457.896 175.596V173.137C458.444 173.417 458.998 173.636 459.552 173.795C460.118 173.941 460.636 174.014 461.111 174.014C461.385 174.014 461.604 173.983 461.768 173.916C461.945 173.855 462.072 173.764 462.158 173.648C462.237 173.521 462.279 173.381 462.279 173.234C462.279 173.058 462.212 172.912 462.085 172.796C461.969 172.668 461.774 172.541 461.5 172.407C461.238 172.279 460.891 172.108 460.453 171.895C460.064 171.719 459.711 171.542 459.406 171.36C459.114 171.165 458.852 170.958 458.627 170.726C458.414 170.483 458.25 170.203 458.14 169.874C458.024 169.552 457.97 169.168 457.97 168.73C457.97 168.085 458.128 167.537 458.457 167.098C458.779 166.648 459.224 166.307 459.796 166.076C460.38 165.851 461.05 165.735 461.817 165.735C462.48 165.735 463.083 165.82 463.619 165.978C464.154 166.124 464.629 166.289 465.055 166.465L464.203 168.608C463.765 168.413 463.332 168.261 462.912 168.145C462.486 168.018 462.091 167.951 461.719 167.951C461.488 167.951 461.293 167.987 461.135 168.048C460.989 168.097 460.873 168.17 460.794 168.267C460.727 168.365 460.697 168.48 460.697 168.608C460.697 168.772 460.751 168.919 460.867 169.046C460.995 169.162 461.208 169.29 461.5 169.436C461.792 169.582 462.188 169.777 462.693 170.02C463.192 170.233 463.619 170.471 463.959 170.726C464.313 170.988 464.58 171.305 464.763 171.676C464.958 172.035 465.055 172.48 465.055 173.015Z" fill="#FFCC00"/>
<path d="M476.211 173.016C476.211 173.57 476.065 174.1 475.773 174.599C475.493 175.086 475.067 175.488 474.483 175.792C473.898 176.103 473.131 176.255 472.194 176.255C471.737 176.255 471.329 176.23 470.976 176.182C470.617 176.145 470.282 176.084 469.978 175.987C469.686 175.89 469.375 175.762 469.053 175.597V173.138C469.601 173.418 470.155 173.637 470.708 173.795C471.275 173.942 471.792 174.015 472.267 174.015C472.541 174.015 472.76 173.984 472.924 173.917C473.101 173.856 473.229 173.765 473.314 173.649C473.393 173.522 473.436 173.382 473.436 173.235C473.436 173.059 473.369 172.913 473.241 172.797C473.125 172.669 472.93 172.542 472.656 172.408C472.395 172.28 472.048 172.109 471.609 171.896C471.22 171.72 470.867 171.543 470.562 171.361C470.27 171.166 470.008 170.959 469.783 170.727C469.57 170.484 469.406 170.204 469.296 169.875C469.181 169.553 469.126 169.169 469.126 168.731C469.126 168.086 469.284 167.538 469.613 167.099C469.935 166.649 470.38 166.308 470.952 166.077C471.536 165.851 472.206 165.736 472.973 165.736C473.636 165.736 474.239 165.821 474.775 165.979C475.311 166.125 475.785 166.29 476.211 166.466L475.359 168.609C474.921 168.414 474.489 168.262 474.069 168.146C473.643 168.019 473.247 167.952 472.876 167.952C472.644 167.952 472.449 167.988 472.291 168.049C472.145 168.098 472.029 168.171 471.95 168.268C471.883 168.366 471.853 168.481 471.853 168.609C471.853 168.773 471.908 168.92 472.023 169.047C472.151 169.163 472.364 169.291 472.656 169.437C472.949 169.583 473.344 169.778 473.85 170.021C474.349 170.234 474.775 170.472 475.116 170.727C475.469 170.989 475.737 171.306 475.919 171.677C476.114 172.036 476.211 172.481 476.211 173.016Z" fill="#FFCC00"/>
<path d="M387.434 165.879H391.013C392.486 165.879 393.533 166.099 394.154 166.537C394.787 166.975 395.104 167.608 395.104 168.436C395.104 168.874 395.018 169.258 394.86 169.581C394.714 169.891 394.507 170.134 394.251 170.311C394.008 170.494 393.764 170.615 393.521 170.676V170.749C393.795 170.816 394.069 170.932 394.349 171.09C394.623 171.255 394.848 171.498 395.031 171.821C395.225 172.149 395.323 172.575 395.323 173.111C395.323 173.732 395.158 174.268 394.836 174.718C394.525 175.157 394.081 175.497 393.497 175.741C392.912 175.984 392.218 176.106 391.427 176.106H387.434V165.879ZM390.209 169.8H391.037C391.488 169.8 391.804 169.714 391.987 169.532C392.182 169.337 392.279 169.106 392.279 168.826C392.279 168.552 392.17 168.339 391.963 168.193C391.75 168.046 391.427 167.973 390.989 167.973H390.209V169.8ZM390.209 171.821V173.963H391.183C391.652 173.963 391.987 173.866 392.182 173.671C392.376 173.464 392.474 173.202 392.474 172.892C392.474 172.697 392.431 172.527 392.352 172.381C392.267 172.222 392.133 172.088 391.938 171.991C391.743 171.882 391.463 171.821 391.11 171.821H390.209Z" fill="#FFCC00"/>
<path d="M218.483 161.022H233.604C233.927 161.022 234.091 160.858 234.091 160.535V157.315C234.091 156.986 233.927 156.822 233.604 156.822H222.598V151.812H231.321C231.644 151.812 231.808 151.648 231.808 151.325V148.227C231.808 147.898 231.644 147.74 231.321 147.74H222.598V142.072H233.604C233.927 142.072 234.091 141.908 234.091 141.585V138.365C234.091 138.036 233.927 137.872 233.604 137.872H218.483C218.154 137.872 217.996 138.036 217.996 138.365V160.535C217.996 160.858 218.154 161.022 218.483 161.022Z" fill="#292727"/>
<path d="M247.169 161.224C250.797 161.224 254.097 159.556 256.258 156.95C256.379 156.786 256.416 156.664 256.416 156.542C256.416 156.421 256.379 156.293 256.258 156.171L254.097 154.053C254.011 153.974 253.932 153.931 253.811 153.931C253.646 153.931 253.482 154.016 253.36 154.138C251.893 155.928 249.732 157.151 247.127 157.151C242.89 157.151 239.956 153.767 239.956 149.53C239.956 145.336 242.89 141.872 247.127 141.872C249.245 141.872 250.998 142.602 252.465 143.948C252.587 144.069 252.751 144.149 252.916 144.149C253.037 144.149 253.117 144.112 253.202 144.027L255.521 141.787C255.643 141.665 255.685 141.543 255.685 141.421C255.685 141.3 255.643 141.178 255.521 141.014C253.403 138.895 250.426 137.593 247.169 137.593C240.65 137.593 235.348 142.889 235.348 149.408C235.348 155.928 240.65 161.224 247.169 161.224Z" fill="#292727"/>
<path d="M267.578 161.224C274.097 161.224 277.36 157.194 277.36 150.796V138.366C277.36 138.037 277.196 137.873 276.867 137.873H273.245C272.917 137.873 272.752 138.037 272.752 138.366V150.796C272.752 155.033 271.407 157.151 267.621 157.151C263.828 157.151 262.483 155.033 262.483 150.796V138.366C262.483 138.037 262.319 137.873 261.996 137.873H258.368C258.039 137.873 257.881 138.037 257.881 138.366V150.796C257.881 157.194 261.101 161.224 267.578 161.224Z" fill="#292727"/>
<path d="M284.525 161.024H288.153C288.476 161.024 288.64 160.86 288.64 160.537V142.074H294.222C294.551 142.074 294.709 141.91 294.709 141.587V138.367C294.709 138.038 294.551 137.874 294.222 137.874H278.45C278.127 137.874 277.963 138.038 277.963 138.367V141.587C277.963 141.91 278.127 142.074 278.45 142.074H284.032V160.537C284.032 160.86 284.196 161.024 284.525 161.024Z" fill="#292727"/>
<path d="M294.897 161.022H298.525C298.848 161.022 299.012 160.858 299.012 160.535V138.365C299.012 138.036 298.848 137.872 298.525 137.872H294.897C294.568 137.872 294.41 138.036 294.41 138.365V160.535C294.41 160.858 294.568 161.022 294.897 161.022Z" fill="#292727"/>
<path d="M309.904 161.101C310.111 161.101 310.312 161.022 310.519 160.821L321.476 138.365C321.476 138.036 321.318 137.872 320.989 137.872H317.038C316.71 137.872 316.509 138.079 316.387 138.365L309.904 151.855L303.427 138.365C303.305 138.079 303.098 137.872 302.776 137.872H298.819C298.496 137.872 298.332 138.036 298.332 138.365L309.295 160.821C309.496 161.022 309.703 161.101 309.904 161.101Z" fill="#292727"/>
<path d="M331.575 161.225C338.095 161.225 343.391 155.929 343.391 149.409C343.391 142.89 338.095 137.594 331.575 137.594C325.056 137.594 319.754 142.89 319.754 149.409C319.754 155.929 325.056 161.225 331.575 161.225ZM331.533 157.152C327.296 157.152 324.362 153.768 324.362 149.531C324.362 145.337 327.296 141.873 331.533 141.873C335.77 141.873 338.789 145.337 338.789 149.531C338.789 153.768 335.77 157.152 331.533 157.152Z" fill="#292727"/>
<path d="M348.568 145.495H350.894C351.216 145.495 351.381 145.337 351.381 145.008L348.976 138.367C348.976 138.038 348.812 137.874 348.489 137.874H344.21C343.881 137.874 343.723 138.038 343.723 138.367L347.838 145.008C348.002 145.294 348.282 145.495 348.568 145.495Z" fill="#292727"/>
<path d="M360.997 161.225C364.254 161.225 368.74 158.863 368.74 155.076C368.74 147.212 356.717 148.679 356.717 144.436C356.717 143.949 356.797 141.83 360.425 141.83C361.934 141.83 364.375 142.561 365.435 142.89C365.556 142.932 365.641 142.969 365.721 142.969C365.964 142.969 366.128 142.89 366.171 142.683L367.395 139.913C367.431 139.87 367.431 139.748 367.431 139.627C367.395 139.426 367.273 139.304 367.109 139.182C365.885 138.732 363.073 137.594 360.303 137.594C355.043 137.594 352.109 140.035 352.109 144.235C352.109 152.386 364.174 150.955 364.174 154.748C364.174 156.093 362.342 157.152 360.425 157.152C357.326 157.152 355.33 156.257 354.471 155.764C354.435 155.728 354.313 155.728 354.191 155.728C353.984 155.728 353.863 155.764 353.783 155.886L352.438 158.497C352.395 158.54 352.395 158.662 352.395 158.784C352.395 158.984 352.602 159.149 352.639 159.191C355.537 161.024 358.099 161.225 360.997 161.225Z" fill="#292727"/>
<path d="M182.456 161.023H197.577C197.899 161.023 198.064 160.859 198.064 160.536V157.316C198.064 156.987 197.899 156.823 197.577 156.823H186.571V151.813H195.294C195.617 151.813 195.781 151.649 195.781 151.326V148.228C195.781 147.899 195.617 147.741 195.294 147.741H186.571V142.073H197.577C197.899 142.073 198.064 141.909 198.064 141.586V138.366C198.064 138.037 197.899 137.873 197.577 137.873H182.456C182.127 137.873 181.969 138.037 181.969 138.366V160.536C181.969 160.859 182.127 161.023 182.456 161.023Z" fill="#292727"/>
<path d="M196.018 161.022H200.255C200.584 161.022 200.912 160.821 201.034 160.535L206.208 152.792L211.383 160.535C211.504 160.821 211.833 161.022 212.156 161.022H216.399C216.721 161.022 216.886 160.858 216.886 160.535L209.508 149.365L216.642 138.365C216.642 138.036 216.478 137.872 216.149 137.872H211.79C211.462 137.872 211.261 138.079 211.139 138.365L206.208 146.065L201.278 138.365C201.156 138.079 200.949 137.872 200.626 137.872H196.262C195.939 137.872 195.775 138.036 195.775 138.365L202.909 149.365L195.531 160.535C195.531 160.858 195.696 161.022 196.018 161.022Z" fill="#292727"/>
<path d="M373.678 160.597H380.301C385.913 160.597 389.876 156.318 389.876 150.711C389.876 145.099 385.913 140.685 380.301 140.685H373.678C373.465 140.685 373.361 140.789 373.361 141.002V160.28C373.361 160.494 373.465 160.597 373.678 160.597ZM376.131 158.284V143.102H379.674C384.02 143.102 387.107 146.468 387.107 150.815C387.107 155.198 384.02 158.284 379.674 158.284H376.131Z" fill="#292727"/>
<path d="M393.697 160.595H395.871C396.084 160.595 396.187 160.492 396.187 160.279V141C396.187 140.787 396.084 140.683 395.871 140.683H393.697C393.484 140.683 393.381 140.787 393.381 141V160.279C393.381 160.492 393.484 160.595 393.697 160.595Z" fill="#292727"/>
<path d="M410.448 160.773C412.548 160.773 414.478 160.14 416.127 159.02L416.9 160.213C417.071 160.457 417.211 160.597 417.387 160.597H418.16C418.367 160.597 418.477 160.493 418.477 160.28V150.778C418.477 150.571 418.367 150.467 418.16 150.467H411.708C411.501 150.467 411.391 150.571 411.391 150.778V152.604C411.391 152.811 411.501 152.92 411.708 152.92H415.671V156.427C413.881 157.967 411.921 158.32 410.411 158.32C406.382 158.32 403.015 155.41 403.015 150.711C403.015 146.364 406.028 142.998 410.411 142.998C412.378 142.998 413.814 143.625 415.251 144.751C415.318 144.818 415.391 144.855 415.494 144.855C415.604 144.855 415.744 144.788 415.847 144.678C416.511 144.015 416.827 143.698 417.071 143.522C417.18 143.418 417.247 143.315 417.247 143.242C417.247 143.205 417.211 143.175 417.18 143.065C415.391 141.488 412.974 140.435 410.448 140.435C404.835 140.435 400.209 144.995 400.209 150.607C400.209 156.214 404.835 160.773 410.448 160.773Z" fill="#292727"/>
<path d="M423.526 160.598H425.699C425.912 160.598 426.015 160.495 426.015 160.281V141.003C426.015 140.79 425.912 140.686 425.699 140.686H423.526C423.312 140.686 423.209 140.79 423.209 141.003V160.281C423.209 160.495 423.312 160.598 423.526 160.598Z" fill="#292727"/>
<path d="M435.477 160.597H437.65C437.857 160.597 437.967 160.494 437.967 160.28V143.139H443.257C443.47 143.139 443.573 143.035 443.573 142.822V141.002C443.573 140.789 443.47 140.685 443.257 140.685H429.834C429.621 140.685 429.518 140.789 429.518 141.002V142.822C429.518 143.035 429.621 143.139 429.834 143.139H435.161V160.28C435.161 160.494 435.264 160.597 435.477 160.597Z" fill="#292727"/>
<path d="M445.675 160.597H447.915C448.092 160.597 448.269 160.494 448.445 160.244L450.442 156.038H459.274L461.277 160.244C461.448 160.494 461.624 160.597 461.801 160.597H464.047C464.29 160.597 464.394 160.494 464.394 160.244L455.105 140.649C455.001 140.612 454.928 140.576 454.861 140.576C454.788 140.576 454.721 140.612 454.612 140.649L445.322 160.244C445.322 160.494 445.426 160.597 445.675 160.597ZM451.562 153.585L454.861 146.712L458.191 153.585H451.562Z" fill="#292727"/>
<path d="M467.867 160.597H480.663C480.876 160.597 480.979 160.494 480.979 160.281V158.461C480.979 158.248 480.876 158.144 480.663 158.144H470.357V141.002C470.357 140.789 470.254 140.686 470.04 140.686H467.867C467.654 140.686 467.551 140.789 467.551 141.002V160.281C467.551 160.494 467.654 160.597 467.867 160.597Z" fill="#292727"/>
<path d="M19.6992 24.2894C19.6992 21.0772 22.3042 18.4634 25.5252 18.4634H114.244C117.456 18.4634 120.07 21.0684 120.07 24.2894V38.8105C120.07 42.0227 127.85 44.6365 124.629 44.6365H51.1878C49.6565 44.6365 48.4156 45.8774 48.4156 47.4087V77.1813C48.4156 78.7126 49.6565 79.9535 51.1878 79.9535H100.014C103.226 79.9535 105.84 82.5585 105.84 85.7795V99.5437C105.84 102.756 103.235 105.37 100.014 105.37H51.1878C49.6565 105.37 48.4156 106.611 48.4156 108.142V133.849C48.4156 135.38 49.6565 136.621 51.1878 136.621H120.07C123.282 136.621 120.07 139.226 120.07 142.447V156.968C120.07 160.18 117.465 162.794 114.244 162.794H25.5252C22.313 162.794 19.6992 160.189 19.6992 156.968V24.2894Z" fill="black"/>
<path d="M182.176 132.159L170.648 114.91C169.548 113.264 167.136 113.264 166.036 114.91L136.07 159.731C135.727 160.585 135.093 161.298 134.16 161.888C133.228 162.486 132.251 162.776 131.239 162.776H104.81C103.455 162.776 102.549 162.328 102.1 161.421C101.686 160.603 101.845 159.599 102.346 158.834L146.745 91.6232C147.352 90.6991 147.361 89.511 146.763 88.5869L103.86 22.3885C103.367 21.6228 103.217 20.6372 103.622 19.8187C104.071 18.9122 104.978 18.4546 106.333 18.4546H133.518C134.53 18.4546 135.384 18.7538 136.061 19.3435C136.739 19.9419 137.241 20.6547 137.584 21.4996L165.992 65.8725C167.083 67.5798 169.574 67.5798 170.665 65.8725L199.074 21.4996C199.408 20.6547 199.918 19.9331 200.596 19.3435C201.274 18.7538 202.119 18.4546 203.139 18.4546H230.325C231.689 18.4546 232.586 18.9122 233.044 19.8187C233.449 20.6372 233.299 21.6228 232.806 22.3885L189.903 88.5869C189.305 89.511 189.305 90.7079 189.921 91.6232L216.692 132.15" fill="black"/>
<path d="M428.093 198.675L497.556 197.98L497.547 196.915L497.512 193.659L496.764 117.991L492.135 118.044L492.892 193.703L428.049 194.354L428.093 198.675Z" fill="#F7CE46"/>
<path d="M69.8772 0.574707H0.414062V1.63958V4.89583V80.5638H5.03438V4.89583H69.8772V0.574707Z" fill="#F7CE46"/>
</svg>