<svg xmlns="http://www.w3.org/2000/svg" width="64" height="64" viewBox="0 0 64 64" fill="none">
  <rect width="64" height="64" rx="14" fill="#0A0A0A"/>
  <path d="M11.5 45h11.5c.24 0 .37-.13.37-.37v-2.45c0-.25-.13-.37-.37-.37h-8.4V37.7h6.6c.24 0 .37-.13.37-.37V35c0-.25-.13-.37-.37-.37h-6.6v-4.32h8.4c.24 0 .37-.13.37-.37v-2.45c0-.25-.13-.37-.37-.37H11.5c-.25 0-.37.12-.37.37v16.87c0 .24.12.37.37.37z" fill="#F5C518"/>
  <path d="M22 45h3.2c.25 0 .5-.15.59-.37l3.93-5.9 3.93 5.9c.09.22.34.37.59.37h3.2c.25 0 .37-.13.37-.37l-5.6-8.5 5.42-8.34c0-.25-.12-.37-.37-.37h-3.3c-.25 0-.4.15-.5.37l-3.74 5.85-3.76-5.85c-.1-.22-.28-.37-.5-.37h-3.3c-.25 0-.37.12-.37.37l5.42 8.34-5.6 8.5c0 .24.12.37.37.37z" fill="#F5C518"/>
  <text x="32" y="56" text-anchor="middle" fill="#F5C518" font-family="sans-serif" font-size="7" font-weight="600" opacity="0.6">DIGITAL</text>
</svg>
